<?xml version="1.0" encoding="UTF-8" standalone="no"?>
<svg
   xmlns:dc="http://purl.org/dc/elements/1.1/"
   xmlns:cc="http://creativecommons.org/ns#"
   xmlns:rdf="http://www.w3.org/1999/02/22-rdf-syntax-ns#"
   xmlns:svg="http://www.w3.org/2000/svg"
   xmlns="http://www.w3.org/2000/svg"
   viewBox="0 0 3767.6533 2664"
   height="2664"
   width="3767.6533"
   xml:space="preserve"
   id="svg2"
   version="1.1"><metadata
     id="metadata8"><rdf:RDF><cc:Work
         rdf:about=""><dc:format>image/svg+xml</dc:format><dc:type
           rdf:resource="http://purl.org/dc/dcmitype/StillImage" /></cc:Work></rdf:RDF></metadata><defs
     id="defs6"><clipPath
       id="clipPath22"
       clipPathUnits="userSpaceOnUse"><path
         id="path20"
         d="M 0,1998 H 2825.743 V 0 H 0 Z" /></clipPath></defs><g
     transform="matrix(1.3333333,0,0,-1.3333333,0,2664)"
     id="g10"><g
       transform="translate(1057.6581,1022.7495)"
       id="g12"><path
         id="path14"
         style="fill:#000000;fill-opacity:1;fill-rule:nonzero;stroke:none"
         d="M 0,0 -22.595,54.557 -45.193,0 Z m 10.382,-25.041 h -66.16 l -12.621,-30.536 h -33.794 l 63.514,142.502 h 32.573 l 63.72,-142.502 h -34.61 z" /></g><g
       id="g16"><g
         clip-path="url(#clipPath22)"
         id="g18"><g
           transform="translate(1154.5453,1109.6748)"
           id="g24"><path
             id="path26"
             style="fill:#000000;fill-opacity:1;fill-rule:nonzero;stroke:none"
             d="m 0,0 c 0,-9.123 7.375,-16.497 16.497,-16.497 8.815,0 16.036,6.914 16.478,15.652 V 0 Z m 16.497,-20.338 c -6.779,0 -12.79,3.322 -16.497,8.431 v -130.591 h 32.975 v 130.572 c -3.688,-5.09 -9.699,-8.412 -16.478,-8.412" /></g><g
           transform="translate(1298.7821,1068.5005)"
           id="g28"><path
             id="path30"
             style="fill:#ed1c24;fill-opacity:1;fill-rule:nonzero;stroke:none"
             d="m 0,0 -1.1,-1.509 -17.998,-23.846 -47.576,66.533 h 37.459 z" /></g><g
           transform="translate(1396.7523,1144.4019)"
           id="g32"><path
             id="path34"
             style="fill:#ed1c24;fill-opacity:1;fill-rule:nonzero;stroke:none"
             d="m 0,0 h -35.624 l -58.779,-80.931 -72.228,-95.709 h 37.852 z" /></g><g
           transform="translate(1524.0219,1038.4248)"
           id="g36"><path
             id="path38"
             style="fill:#000000;fill-opacity:1;fill-rule:nonzero;stroke:none"
             d="m 0,0 c 0,27.074 -19.137,45.6 -44.583,45.6 -25.446,0 -44.583,-18.526 -44.583,-45.6 0,-27.076 19.137,-45.602 44.583,-45.602 C -19.137,-45.602 0,-27.076 0,0 m -122.553,0 c 0,42.342 32.98,73.694 77.97,73.694 44.785,0 77.968,-31.148 77.968,-73.694 0,-42.549 -33.183,-73.696 -77.968,-73.696 -44.99,0 -77.97,31.352 -77.97,73.696" /></g><g
           transform="translate(1639.639,1083.2104)"
           id="g40"><path
             id="path42"
             style="fill:#000000;fill-opacity:1;fill-rule:nonzero;stroke:none"
             d="M 0,0 V -37.661 H 65.96 V -64.125 H 0 v -51.913 H -32.978 V 26.464 H 74.713 V 0 Z" /></g><g
           transform="translate(1791.6967,1082.8032)"
           id="g44"><path
             id="path46"
             style="fill:#000000;fill-opacity:1;fill-rule:nonzero;stroke:none"
             d="M 0,0 H -45.6 V 26.872 H 78.581 V 0 h -45.6 V -115.63 H 0 Z" /></g><g
           transform="translate(1366.722,976.3301)"
           id="g48"><path
             id="path50"
             style="fill:#ed1c24;fill-opacity:1;fill-rule:nonzero;stroke:none"
             d="M 0,0 -47.205,65.469 -65.737,39.773 -38.063,0 C 170.61,-263.685 428.058,-20.421 428.058,-20.421 157.272,-219.346 0,0 0,0" /></g><g
           transform="translate(1328.1664,1035.5591)"
           id="g52"><path
             id="path54"
             style="fill:#1c75bc;fill-opacity:1;fill-rule:nonzero;stroke:none"
             d="M 0,0 H -8.968" /></g><g
           transform="translate(1187.5394,1109.6748)"
           id="g56"><path
             id="path58"
             style="fill:#f7941e;fill-opacity:1;fill-rule:nonzero;stroke:none"
             d="m 0,0 c 0,-0.289 0,-0.577 -0.02,-0.845 -0.441,-8.738 -7.662,-15.652 -16.477,-15.652 -9.122,0 -16.497,7.374 -16.497,16.497 0,9.122 7.375,16.497 16.497,16.497 C -7.394,16.497 0,9.122 0,0" /></g><g
           transform="translate(1187.5394,1109.6748)"
           id="g60"><path
             id="path62"
             style="fill:#ed1c24;fill-opacity:1;fill-rule:nonzero;stroke:none"
             d="m 0,0 c 0,-0.289 0,-0.577 -0.02,-0.845 -0.441,-8.738 -7.662,-15.652 -16.477,-15.652 -9.122,0 -16.497,7.374 -16.497,16.497 0,9.122 7.375,16.497 16.497,16.497 C -7.394,16.497 0,9.122 0,0" /></g></g></g></g></svg>